<svg width="552" height="128" viewBox="0 0 552 128" fill="none" xmlns="http://www.w3.org/2000/svg">
<g clip-path="url(#clip0_1067_2015)">
<path d="M4.85886 116.5C-2.82714 105.033 0.262861 90.1998 12.0999 81.7348L18.1599 77.3898H45.0599C79.2859 77.3898 95.1739 70.3628 96.6349 50.4428L65.6559 49.7188C29.8959 48.8728 24.1409 47.3248 13.1969 35.6038C3.27486 24.9728 -3.38114 4.79982 1.80786 1.04482C4.83086 -1.13918 75.5059 0.413817 82.7999 2.82982C90.6429 5.42282 101.078 15.2088 105.489 24.1098C121.197 55.8168 97.6889 89.0438 59.5399 89.0438C48.6799 89.0438 48.8649 88.8618 50.6839 97.6238C54.3549 115.324 40.0909 127.806 25.5049 127.805C21.3895 127.814 17.3387 126.782 13.7291 124.806C10.1194 122.829 7.06811 119.972 4.85886 116.5ZM12.2819 104.049C14.3029 118.938 33.3359 121.116 39.2529 107.134C41.6099 101.556 38.1609 91.8528 33.1529 89.9508C31.1145 89.167 28.9507 88.7604 26.7669 88.7508C18.1359 88.7558 11.0999 95.3428 12.2819 104.049ZM13.8439 12.5388C11.7839 17.8388 22.1509 31.0538 31.7239 35.3448C36.8069 37.6328 41.8059 37.9998 67.4999 38.0308L97.3649 38.0638C97.3649 29.4718 88.7499 19.0118 81.0749 14.7548C75.8289 11.8478 52.8549 10.0138 35.1979 10.0148C23.7439 10.0148 14.5249 10.7868 13.8439 12.5388ZM486.754 117.019C483.314 113.574 480.605 109.47 478.79 104.952C476.974 100.435 476.091 95.5973 476.191 90.7298C476.091 85.8624 476.974 81.0248 478.79 76.5074C480.605 71.9899 483.314 67.8857 486.754 64.4408C490.032 60.9705 493.995 58.2196 498.393 56.3628C502.791 54.506 507.527 53.5838 512.3 53.6548C524.1 53.6548 533.092 58.3062 539.277 67.6088V55.4908H551.7V125.976H539.28V113.851C533.093 123.155 524.1 127.807 512.3 127.805C507.527 127.876 502.791 126.954 498.393 125.097C493.995 123.24 490.032 120.489 486.754 117.019ZM495.884 72.7568C493.507 75.0964 491.635 77.8984 490.383 80.9899C489.132 84.0813 488.527 87.3966 488.607 90.7308C488.586 94.0714 489.226 97.3832 490.49 100.476C491.753 103.568 493.616 106.38 495.971 108.75C498.326 111.119 501.126 113 504.211 114.283C507.295 115.566 510.603 116.227 513.943 116.227C517.284 116.227 520.592 115.566 523.676 114.283C526.761 113 529.561 111.119 531.916 108.75C534.27 106.38 536.133 103.568 537.397 100.476C538.661 97.3832 539.301 94.0714 539.28 90.7308C539.36 87.3962 538.756 84.0806 537.504 80.9889C536.251 77.8973 534.378 75.0955 532 72.7568C527.143 68.0984 520.673 65.4975 513.943 65.4975C507.213 65.4975 500.744 68.0984 495.887 72.7568H495.884ZM260.655 123.294C255.933 120.545 252.227 116.342 250.092 111.313L260.792 105.248C261.913 108.605 264.191 111.454 267.219 113.287C270.617 115.33 274.529 116.356 278.493 116.245C282.016 116.38 285.512 115.579 288.625 113.923C289.905 113.213 290.96 112.156 291.667 110.874C292.374 109.592 292.706 108.137 292.625 106.675C292.625 103.955 291.244 101.773 288.482 100.129C285.347 98.3287 282.002 96.923 278.523 95.9438L266.823 92.4778C262.969 91.3548 259.5 89.1888 256.8 86.2188C253.979 83.0449 252.496 78.902 252.663 74.6588C252.609 71.7574 253.233 68.8835 254.485 66.2653C255.736 63.6472 257.581 61.357 259.873 59.5768C264.673 55.6295 270.691 53.6558 277.927 53.6558C283.342 53.5582 288.686 54.8955 293.417 57.5318C297.832 60.01 301.39 63.7711 303.62 68.3168L293.2 74.0948C290.631 68.0795 285.54 65.0718 277.929 65.0718C274.76 64.9763 271.633 65.8166 268.939 67.4878C267.77 68.1926 266.81 69.1961 266.157 70.3952C265.505 71.5942 265.184 72.9454 265.227 74.3098C265.227 76.9765 266.627 79.1125 269.427 80.7178C272.593 82.4763 275.956 83.8526 279.447 84.8178C283.326 85.9398 287.226 87.0715 291.147 88.2128C295.025 89.3214 298.49 91.5473 301.111 94.6128C303.826 97.7368 305.185 101.752 305.186 106.66C305.27 109.636 304.633 112.588 303.329 115.265C302.025 117.941 300.092 120.262 297.696 122.03C292.696 125.883 286.296 127.809 278.496 127.807C271.549 127.805 265.602 126.301 260.655 123.294ZM170.874 117.019C167.434 113.574 164.725 109.47 162.91 104.952C161.094 100.435 160.211 95.5973 160.311 90.7298C160.211 85.8624 161.094 81.0248 162.91 76.5074C164.725 71.9899 167.434 67.8857 170.874 64.4408C174.152 60.9701 178.116 58.219 182.515 56.3622C186.913 54.5054 191.649 53.5834 196.423 53.6548C208.223 53.6548 217.215 58.3062 223.4 67.6088V55.4908H235.816V125.976H223.4V113.851C217.214 123.155 208.222 127.807 196.423 127.805C191.649 127.876 186.913 126.954 182.515 125.097C178.116 123.241 174.152 120.489 170.874 117.019ZM180 72.7568C177.623 75.0964 175.751 77.8984 174.499 80.9899C173.248 84.0813 172.643 87.3966 172.723 90.7308C172.702 94.0714 173.342 97.3832 174.606 100.476C175.869 103.568 177.732 106.38 180.087 108.75C182.442 111.119 185.242 113 188.327 114.283C191.411 115.566 194.719 116.227 198.059 116.227C201.4 116.227 204.708 115.566 207.792 114.283C210.877 113 213.677 111.119 216.032 108.75C218.386 106.38 220.249 103.568 221.513 100.476C222.777 97.3832 223.417 94.0714 223.396 90.7308C223.476 87.396 222.871 84.0802 221.618 80.9886C220.366 77.897 218.492 75.0953 216.113 72.7568C211.256 68.0984 204.786 65.4975 198.056 65.4975C191.326 65.4975 184.857 68.0984 180 72.7568ZM450.5 125.975V83.3998C450.5 77.6665 448.931 73.2271 445.792 70.0818C442.653 66.9365 438.322 65.3608 432.799 65.3548C426.613 65.3548 421.617 67.2585 417.813 71.0658C414.008 74.8732 412.104 80.7238 412.1 88.6178V125.975H399.682V55.4908H412.1V65.6358C417.144 57.6525 424.852 53.6588 435.225 53.6548C443.6 53.6548 450.308 56.2625 455.35 61.4778C460.392 66.6932 462.913 73.7672 462.912 82.6998V125.978L450.5 125.975ZM369.995 125.975V83.3998C369.995 77.6665 368.426 73.2271 365.287 70.0818C362.148 66.9365 357.819 65.3605 352.3 65.3538C346.114 65.3538 341.117 67.2575 337.308 71.0648C333.499 74.8722 331.596 80.7231 331.598 88.6178V125.975H319.177V27.2948H331.593V65.6358C336.637 57.6525 344.345 53.6588 354.718 53.6548C363.092 53.6548 369.801 56.2625 374.843 61.4778C379.885 66.6932 382.408 73.7672 382.412 82.6998V125.978L369.995 125.975ZM121.347 125.975V55.4908H133.763V67.3268C137.855 58.5935 145.278 54.2242 156.032 54.2188V67.0458C150.384 66.6283 144.784 68.3379 140.332 71.8388C135.954 75.3161 133.765 80.9091 133.766 88.6178V125.975H121.347Z" fill="black"/>
</g>
<defs>
<clipPath id="clip0_1067_2015">
<rect width="551.697" height="127.805" fill="white"/>
</clipPath>
</defs>
</svg>
